<mxfile host="www.draw.io" modified="2020-02-27T01:25:10.465Z" agent="Mozilla/5.0 (Windows NT 10.0; Win64; x64; rv:73.0) Gecko/20100101 Firefox/73.0" etag="xGBMNQ6Vo7eD21CSYKF4" version="12.7.8" type="github" pages="3">
  <diagram id="C5RBs43oDa-KdzZeNtuy" name="Page-1">
    <mxGraphModel dx="1422" dy="791" grid="1" gridSize="10" guides="1" tooltips="1" connect="1" arrows="1" fold="1" page="1" pageScale="1" pageWidth="827" pageHeight="1169" math="0" shadow="0">
      <root>
        <mxCell id="WIyWlLk6GJQsqaUBKTNV-0" />
        <mxCell id="WIyWlLk6GJQsqaUBKTNV-1" parent="WIyWlLk6GJQsqaUBKTNV-0" />
      </root>
    </mxGraphModel>
  </diagram>
  <diagram name="購買點數流程" id="UDTJ9gGHVOhUSkGPoaIQ">
    <mxGraphModel dx="1296" dy="797" grid="1" gridSize="10" guides="1" tooltips="1" connect="1" arrows="1" fold="1" page="1" pageScale="1" pageWidth="583" pageHeight="827" background="#ffffff" math="0" shadow="0">
      <root>
        <mxCell id="0" />
        <mxCell id="1" parent="0" />
        <mxCell id="77e6c97f196da883-1" value="點數購買流程" style="swimlane;html=1;childLayout=stackLayout;startSize=20;rounded=0;shadow=0;labelBackgroundColor=none;strokeColor=#36393d;strokeWidth=1;fillColor=#cce5ff;fontFamily=Verdana;fontSize=8;fontColor=#000000;align=center;dashed=1;" parent="1" vertex="1">
          <mxGeometry x="228" y="252" width="1002" height="1800" as="geometry" />
        </mxCell>
        <mxCell id="40" style="edgeStyle=orthogonalEdgeStyle;rounded=1;html=1;exitX=1;exitY=0.5;entryX=0.5;entryY=0;endArrow=classic;endFill=1;jettySize=auto;orthogonalLoop=1;fontSize=10;" parent="77e6c97f196da883-1" source="140" target="297" edge="1">
          <mxGeometry relative="1" as="geometry">
            <mxPoint x="422" y="235" as="sourcePoint" />
            <mxPoint x="210" y="260" as="targetPoint" />
          </mxGeometry>
        </mxCell>
        <mxCell id="77e6c97f196da883-2" value="App" style="swimlane;html=1;startSize=20;labelBackgroundColor=#ffffff;dashed=1;" parent="77e6c97f196da883-1" vertex="1">
          <mxGeometry y="20" width="255" height="1780" as="geometry">
            <mxRectangle y="20" width="80" height="990" as="alternateBounds" />
          </mxGeometry>
        </mxCell>
        <mxCell id="77e6c97f196da883-8" value="Purchase Point" style="rounded=1;whiteSpace=wrap;html=1;shadow=0;labelBackgroundColor=none;strokeColor=#666666;strokeWidth=1;fillColor=#f5f5f5;fontFamily=Verdana;fontSize=8;fontColor=#000000;align=center;gradientColor=#b3b3b3;" parent="77e6c97f196da883-2" vertex="1">
          <mxGeometry x="70" y="60" width="100" height="60" as="geometry" />
        </mxCell>
        <mxCell id="21" value="show error message" style="rounded=0;whiteSpace=wrap;html=1;fontSize=10;fillColor=#d5e8d4;strokeColor=#82b366;" parent="77e6c97f196da883-2" vertex="1">
          <mxGeometry x="15" y="150" width="85" height="60" as="geometry" />
        </mxCell>
        <mxCell id="82" value="Purchase Success" style="rounded=0;whiteSpace=wrap;html=1;fontSize=10;fillColor=#f5f5f5;strokeColor=#666666;gradientColor=#b3b3b3;" parent="77e6c97f196da883-2" vertex="1">
          <mxGeometry x="60" y="1112" width="120" height="60" as="geometry" />
        </mxCell>
        <mxCell id="131" style="edgeStyle=orthogonalEdgeStyle;rounded=1;html=1;exitX=0.5;exitY=1;entryX=0.5;entryY=0;endArrow=classic;endFill=1;jettySize=auto;orthogonalLoop=1;fontSize=10;" parent="77e6c97f196da883-2" source="119" target="82" edge="1">
          <mxGeometry relative="1" as="geometry" />
        </mxCell>
        <mxCell id="354" style="edgeStyle=orthogonalEdgeStyle;rounded=0;html=1;exitX=0;exitY=0.5;entryX=0.5;entryY=1;endArrow=classic;endFill=1;jettySize=auto;orthogonalLoop=1;fontSize=9;" edge="1" parent="77e6c97f196da883-2" source="119" target="21">
          <mxGeometry relative="1" as="geometry">
            <Array as="points">
              <mxPoint x="42" y="763" />
              <mxPoint x="42" y="228" />
              <mxPoint x="58" y="228" />
            </Array>
          </mxGeometry>
        </mxCell>
        <mxCell id="119" value="&lt;font style=&quot;font-size: 10px&quot;&gt;User purchase status&lt;br&gt;&lt;/font&gt;" style="rhombus;whiteSpace=wrap;html=1;rounded=0;fontSize=10;fillColor=#ffe6cc;strokeColor=#d79b00;" parent="77e6c97f196da883-2" vertex="1">
          <mxGeometry x="62" y="719" width="114" height="88" as="geometry" />
        </mxCell>
        <mxCell id="124" value="T (Success)" style="text;html=1;strokeColor=none;fillColor=none;align=center;verticalAlign=middle;whiteSpace=wrap;rounded=0;labelBackgroundColor=none;fontSize=10;" parent="77e6c97f196da883-2" vertex="1">
          <mxGeometry x="54" y="832" width="60" height="23" as="geometry" />
        </mxCell>
        <mxCell id="128" value="F (Failed)" style="text;html=1;strokeColor=none;fillColor=none;align=center;verticalAlign=middle;whiteSpace=wrap;rounded=0;labelBackgroundColor=none;fontSize=10;" parent="77e6c97f196da883-2" vertex="1">
          <mxGeometry y="698" width="60" height="23" as="geometry" />
        </mxCell>
        <mxCell id="297" value="購買流程" style="rhombus;whiteSpace=wrap;html=1;rounded=0;fontSize=10;fillColor=#ffe6cc;strokeColor=#d79b00;" parent="77e6c97f196da883-2" vertex="1">
          <mxGeometry x="80" y="309" width="80" height="50" as="geometry" />
        </mxCell>
        <mxCell id="307" value="T&lt;br&gt;" style="text;html=1;strokeColor=none;fillColor=none;align=center;verticalAlign=middle;whiteSpace=wrap;rounded=0;fontSize=10;" parent="77e6c97f196da883-2" vertex="1">
          <mxGeometry x="190" y="313" width="40" height="20" as="geometry" />
        </mxCell>
        <mxCell id="309" value="Ｆ（取消）" style="text;html=1;strokeColor=none;fillColor=none;align=center;verticalAlign=middle;whiteSpace=wrap;rounded=0;fontSize=10;" parent="77e6c97f196da883-2" vertex="1">
          <mxGeometry x="181" y="372.5" width="70" height="20" as="geometry" />
        </mxCell>
        <mxCell id="338" value="remove&amp;nbsp;&lt;br&gt;&amp;nbsp;Local(KeyChain)&lt;br&gt;&amp;nbsp;receipt data&lt;br&gt;" style="rounded=1;whiteSpace=wrap;html=1;fontSize=10;fillColor=#d5e8d4;strokeColor=#82b366;" parent="77e6c97f196da883-2" vertex="1">
          <mxGeometry x="56" y="897" width="128" height="60" as="geometry" />
        </mxCell>
        <mxCell id="365" style="edgeStyle=orthogonalEdgeStyle;rounded=0;html=1;exitX=0.5;exitY=1;entryX=0.5;entryY=0;endArrow=classic;endFill=1;jettySize=auto;orthogonalLoop=1;fontSize=9;" edge="1" parent="77e6c97f196da883-2" source="343" target="132">
          <mxGeometry relative="1" as="geometry" />
        </mxCell>
        <mxCell id="343" value="交易成功 / &lt;br&gt;失敗" style="rhombus;whiteSpace=wrap;html=1;rounded=0;fontSize=10;fillColor=#ffe6cc;strokeColor=#d79b00;" vertex="1" parent="77e6c97f196da883-2">
          <mxGeometry x="80" y="523" width="80" height="50" as="geometry" />
        </mxCell>
        <mxCell id="366" style="edgeStyle=orthogonalEdgeStyle;rounded=0;html=1;exitX=0.5;exitY=1;entryX=0.5;entryY=0;endArrow=classic;endFill=1;jettySize=auto;orthogonalLoop=1;fontSize=9;" edge="1" parent="77e6c97f196da883-2" source="132" target="119">
          <mxGeometry relative="1" as="geometry" />
        </mxCell>
        <mxCell id="132" value="Save uid&lt;br&gt;&lt;span&gt;serial_id&lt;/span&gt;、&lt;span&gt;receipt Id&lt;/span&gt;、receipt data&lt;br&gt;to Local(KeyChain)&lt;br&gt;" style="rounded=1;whiteSpace=wrap;html=1;fontSize=10;fillColor=#d5e8d4;strokeColor=#82b366;" parent="77e6c97f196da883-2" vertex="1">
          <mxGeometry x="55.5" y="620.5" width="128" height="60" as="geometry" />
        </mxCell>
        <mxCell id="359" value="T (成功)" style="text;html=1;strokeColor=none;fillColor=none;align=center;verticalAlign=middle;whiteSpace=wrap;rounded=0;fontSize=10;" vertex="1" parent="77e6c97f196da883-2">
          <mxGeometry x="120" y="588" width="70" height="20" as="geometry" />
        </mxCell>
        <mxCell id="272" style="edgeStyle=orthogonalEdgeStyle;rounded=0;html=1;exitX=1;exitY=0.5;entryX=0.25;entryY=1;startArrow=none;startFill=0;endArrow=classic;endFill=1;jettySize=auto;orthogonalLoop=1;strokeColor=#000000;strokeWidth=1;fontSize=16;fontColor=#000000;" parent="77e6c97f196da883-1" source="77e6c97f196da883-8" target="140" edge="1">
          <mxGeometry relative="1" as="geometry" />
        </mxCell>
        <mxCell id="305" style="edgeStyle=orthogonalEdgeStyle;rounded=0;html=1;exitX=1;exitY=0.5;entryX=0;entryY=0.5;startArrow=none;startFill=0;endArrow=classic;endFill=1;jettySize=auto;orthogonalLoop=1;strokeColor=#000000;strokeWidth=1;fontSize=16;fontColor=#000000;" parent="77e6c97f196da883-1" source="297" target="48" edge="1">
          <mxGeometry relative="1" as="geometry" />
        </mxCell>
        <mxCell id="308" style="edgeStyle=orthogonalEdgeStyle;rounded=0;html=1;exitX=0.5;exitY=1;entryX=0.5;entryY=1;startArrow=none;startFill=0;endArrow=classic;endFill=1;jettySize=auto;orthogonalLoop=1;strokeColor=#000000;strokeWidth=1;fontSize=16;fontColor=#000000;" parent="77e6c97f196da883-1" source="297" target="302" edge="1">
          <mxGeometry relative="1" as="geometry" />
        </mxCell>
        <mxCell id="77e6c97f196da883-3" value="Server 端" style="swimlane;html=1;startSize=20;dashed=1;" parent="77e6c97f196da883-1" vertex="1">
          <mxGeometry x="255" y="20" width="465" height="1780" as="geometry" />
        </mxCell>
        <mxCell id="140" value="" style="rounded=1;whiteSpace=wrap;html=1;labelBackgroundColor=none;strokeWidth=1;fontSize=10;rotation=90;fillColor=#dae8fc;strokeColor=#6c8ebf;gradientColor=#7ea6e0;" parent="77e6c97f196da883-3" vertex="1">
          <mxGeometry x="140" y="46" width="172" height="175" as="geometry" />
        </mxCell>
        <mxCell id="14" value="uid, point_id" style="text;html=1;strokeColor=none;fillColor=none;align=center;verticalAlign=middle;whiteSpace=wrap;rounded=0;dashed=1;dashPattern=1 2;fontSize=12;" parent="77e6c97f196da883-3" vertex="1">
          <mxGeometry x="10" y="60" width="80" height="30" as="geometry" />
        </mxCell>
        <mxCell id="280" style="edgeStyle=orthogonalEdgeStyle;rounded=0;html=1;exitX=0.5;exitY=1;entryX=0.5;entryY=0;startArrow=none;startFill=0;endArrow=classic;endFill=1;jettySize=auto;orthogonalLoop=1;strokeColor=#000000;strokeWidth=1;fontSize=16;fontColor=#000000;" parent="77e6c97f196da883-3" source="15" target="279" edge="1">
          <mxGeometry relative="1" as="geometry" />
        </mxCell>
        <mxCell id="15" value="&amp;nbsp;create serial id&lt;br&gt;" style="rounded=1;whiteSpace=wrap;html=1;shadow=0;labelBackgroundColor=none;strokeColor=#6c8ebf;strokeWidth=1;fillColor=#dae8fc;fontFamily=Verdana;fontSize=8;fontColor=#000000;align=center;" parent="77e6c97f196da883-3" vertex="1">
          <mxGeometry x="178.5" y="60" width="104" height="60" as="geometry" />
        </mxCell>
        <mxCell id="47" value="response(&lt;span&gt;serial_id&lt;/span&gt;)" style="text;html=1;strokeColor=none;fillColor=none;align=center;verticalAlign=middle;whiteSpace=wrap;rounded=0;dashed=1;dashPattern=1 2;fontSize=12;" parent="77e6c97f196da883-3" vertex="1">
          <mxGeometry x="8" y="235" width="117" height="30" as="geometry" />
        </mxCell>
        <mxCell id="50" value="apple or google product id" style="text;html=1;strokeColor=none;fillColor=none;align=center;verticalAlign=middle;whiteSpace=wrap;rounded=0;fontSize=10;" parent="77e6c97f196da883-3" vertex="1">
          <mxGeometry x="108" y="302" width="143" height="20" as="geometry" />
        </mxCell>
        <mxCell id="77e6c97f196da883-4" value="IAP / IAB Server" style="swimlane;html=1;startSize=20;dashed=1;" parent="77e6c97f196da883-3" vertex="1">
          <mxGeometry x="467" width="280" height="1780" as="geometry" />
        </mxCell>
        <mxCell id="48" value="IAP / IAB" style="rounded=1;whiteSpace=wrap;html=1;fontSize=10;" parent="77e6c97f196da883-4" vertex="1">
          <mxGeometry x="60" y="304" width="120" height="60" as="geometry" />
        </mxCell>
        <mxCell id="209" value="&lt;span&gt;verification&lt;/span&gt;" style="rounded=1;whiteSpace=wrap;html=1;fontSize=10;" parent="77e6c97f196da883-4" vertex="1">
          <mxGeometry x="60" y="1241" width="120" height="60" as="geometry" />
        </mxCell>
        <mxCell id="164" value="" style="rounded=1;whiteSpace=wrap;html=1;labelBackgroundColor=none;strokeWidth=1;fontSize=10;rotation=90;fillColor=#dae8fc;strokeColor=#6c8ebf;gradientColor=#7ea6e0;" parent="77e6c97f196da883-3" vertex="1">
          <mxGeometry x="-261" y="1021" width="992" height="427" as="geometry" />
        </mxCell>
        <mxCell id="210" value="&lt;font style=&quot;font-size: 10px&quot;&gt;verification&lt;br&gt;status&lt;br&gt;&lt;/font&gt;" style="rhombus;whiteSpace=wrap;html=1;rounded=0;fontSize=10;fillColor=#ffe6cc;strokeColor=#d79b00;" parent="77e6c97f196da883-3" vertex="1">
          <mxGeometry x="209.5" y="1293" width="108" height="59" as="geometry" />
        </mxCell>
        <mxCell id="212" value="" style="strokeWidth=1;html=1;shape=mxgraph.flowchart.annotation_2;align=left;rounded=0;labelBackgroundColor=none;fontSize=10;rotation=90;" parent="77e6c97f196da883-3" vertex="1">
          <mxGeometry x="243.5" y="1305.5" width="42" height="133" as="geometry" />
        </mxCell>
        <mxCell id="318" style="edgeStyle=orthogonalEdgeStyle;rounded=0;html=1;entryX=0.5;entryY=0;startArrow=none;startFill=0;endArrow=classic;endFill=1;jettySize=auto;orthogonalLoop=1;strokeColor=#000000;strokeWidth=1;fontSize=16;fontColor=#000000;" parent="77e6c97f196da883-3" source="213" target="276" edge="1">
          <mxGeometry relative="1" as="geometry">
            <Array as="points">
              <mxPoint x="177" y="1592" />
              <mxPoint x="263" y="1592" />
            </Array>
          </mxGeometry>
        </mxCell>
        <mxCell id="213" value="&lt;span&gt;Update billing status&lt;/span&gt;&lt;br&gt;&lt;span&gt;&#39;f&lt;/span&gt;&lt;span&gt;ailed&#39; &lt;br&gt;&amp;amp; Update&amp;nbsp;&lt;/span&gt;billing status&lt;span&gt;&amp;nbsp;code&lt;br&gt;&lt;/span&gt;" style="rounded=1;whiteSpace=wrap;html=1;shadow=0;labelBackgroundColor=none;strokeColor=#6c8ebf;strokeWidth=1;fillColor=#dae8fc;fontFamily=Verdana;fontSize=8;fontColor=#000000;align=center;" parent="77e6c97f196da883-3" vertex="1">
          <mxGeometry x="110" y="1392" width="134" height="77" as="geometry" />
        </mxCell>
        <mxCell id="340" style="edgeStyle=orthogonalEdgeStyle;rounded=0;html=1;exitX=0.5;exitY=1;entryX=0;entryY=0.5;entryPerimeter=0;startArrow=none;startFill=0;endArrow=none;endFill=0;jettySize=auto;orthogonalLoop=1;strokeColor=#000000;strokeWidth=1;fontSize=16;fontColor=#000000;" parent="77e6c97f196da883-3" source="217" target="218" edge="1">
          <mxGeometry relative="1" as="geometry">
            <Array as="points">
              <mxPoint x="235" y="857" />
            </Array>
          </mxGeometry>
        </mxCell>
        <mxCell id="217" value="&lt;font style=&quot;font-size: 10px&quot;&gt;Data check&lt;br&gt;&lt;/font&gt;" style="rhombus;whiteSpace=wrap;html=1;rounded=0;fontSize=10;fillColor=#ffe6cc;strokeColor=#d79b00;" parent="77e6c97f196da883-3" vertex="1">
          <mxGeometry x="181" y="784.5" width="108" height="59" as="geometry" />
        </mxCell>
        <mxCell id="283" style="edgeStyle=orthogonalEdgeStyle;rounded=0;html=1;exitX=1;exitY=0;exitPerimeter=0;entryX=0.5;entryY=0;startArrow=none;startFill=0;endArrow=none;endFill=0;jettySize=auto;orthogonalLoop=1;strokeColor=#000000;strokeWidth=1;fontSize=16;fontColor=#000000;" parent="77e6c97f196da883-3" source="218" target="248" edge="1">
          <mxGeometry relative="1" as="geometry" />
        </mxCell>
        <mxCell id="320" style="edgeStyle=orthogonalEdgeStyle;rounded=0;html=1;exitX=1;exitY=1;exitPerimeter=0;entryX=0;entryY=0.5;startArrow=none;startFill=0;endArrow=classic;endFill=1;jettySize=auto;orthogonalLoop=1;strokeColor=#000000;strokeWidth=1;fontSize=16;fontColor=#000000;" parent="77e6c97f196da883-3" source="218" target="276" edge="1">
          <mxGeometry relative="1" as="geometry">
            <Array as="points">
              <mxPoint x="87" y="902" />
              <mxPoint x="87" y="1650" />
            </Array>
          </mxGeometry>
        </mxCell>
        <mxCell id="218" value="" style="strokeWidth=1;html=1;shape=mxgraph.flowchart.annotation_2;align=left;rounded=0;labelBackgroundColor=none;fontSize=10;rotation=90;" parent="77e6c97f196da883-3" vertex="1">
          <mxGeometry x="149" y="795" width="45" height="169" as="geometry" />
        </mxCell>
        <mxCell id="169" value="&lt;span&gt;Create Order Number&amp;nbsp; &amp;amp;&lt;br&gt;&amp;nbsp;&lt;br&gt;&lt;/span&gt;Update preOrder status&lt;br&gt;&amp;nbsp;&#39;order created&#39;&lt;span&gt;&lt;br&gt;&lt;/span&gt;" style="rounded=1;whiteSpace=wrap;html=1;shadow=0;labelBackgroundColor=none;strokeColor=#6c8ebf;strokeWidth=1;fillColor=#dae8fc;fontFamily=Verdana;fontSize=8;fontColor=#000000;align=center;" parent="77e6c97f196da883-3" vertex="1">
          <mxGeometry x="128" y="1031" width="108" height="93" as="geometry" />
        </mxCell>
        <mxCell id="275" style="edgeStyle=orthogonalEdgeStyle;rounded=0;html=1;entryX=0.5;entryY=0;startArrow=none;startFill=0;endArrow=classic;endFill=1;jettySize=auto;orthogonalLoop=1;strokeColor=#000000;strokeWidth=1;fontSize=16;fontColor=#000000;" parent="77e6c97f196da883-3" source="211" target="274" edge="1">
          <mxGeometry relative="1" as="geometry" />
        </mxCell>
        <mxCell id="211" value="&lt;span&gt;Update billing status&lt;/span&gt;&lt;br&gt;&lt;span&gt;&#39;s&lt;/span&gt;&lt;span&gt;uccess&#39; &amp;amp;&lt;br&gt;Update ship status&lt;br&gt;&#39;Y&#39;&lt;br&gt;&lt;/span&gt;" style="rounded=1;whiteSpace=wrap;html=1;shadow=0;labelBackgroundColor=none;strokeColor=#6c8ebf;strokeWidth=1;fillColor=#dae8fc;fontFamily=Verdana;fontSize=8;fontColor=#000000;align=center;" parent="77e6c97f196da883-3" vertex="1">
          <mxGeometry x="265" y="1392" width="125" height="77" as="geometry" />
        </mxCell>
        <mxCell id="227" value="T&lt;br&gt;" style="text;html=1;strokeColor=none;fillColor=none;align=center;verticalAlign=middle;whiteSpace=wrap;rounded=0;fontSize=10;" parent="77e6c97f196da883-3" vertex="1">
          <mxGeometry x="203.5" y="860" width="40" height="20" as="geometry" />
        </mxCell>
        <mxCell id="228" value="F&lt;br&gt;" style="text;html=1;strokeColor=none;fillColor=none;align=center;verticalAlign=middle;whiteSpace=wrap;rounded=0;fontSize=10;" parent="77e6c97f196da883-3" vertex="1">
          <mxGeometry x="125" y="858.5" width="40" height="20" as="geometry" />
        </mxCell>
        <mxCell id="233" value="T&lt;br&gt;" style="text;html=1;strokeColor=none;fillColor=none;align=center;verticalAlign=middle;whiteSpace=wrap;rounded=0;fontSize=10;" parent="77e6c97f196da883-3" vertex="1">
          <mxGeometry x="288.5" y="1353" width="40" height="20" as="geometry" />
        </mxCell>
        <mxCell id="234" value="F&lt;br&gt;" style="text;html=1;strokeColor=none;fillColor=none;align=center;verticalAlign=middle;whiteSpace=wrap;rounded=0;fontSize=10;" parent="77e6c97f196da883-3" vertex="1">
          <mxGeometry x="211" y="1352" width="40" height="20" as="geometry" />
        </mxCell>
        <mxCell id="248" value="&lt;font style=&quot;font-size: 10px&quot;&gt;receipt_id&lt;br&gt;已存在?&lt;br&gt;&lt;/font&gt;" style="rhombus;whiteSpace=wrap;html=1;rounded=0;fontSize=10;fillColor=#ffe6cc;strokeColor=#d79b00;" parent="77e6c97f196da883-3" vertex="1">
          <mxGeometry x="202" y="910.5" width="108" height="59" as="geometry" />
        </mxCell>
        <mxCell id="249" value="&lt;font style=&quot;font-size: 10px&quot;&gt;receipt&lt;br&gt;已出貨?&lt;br&gt;&lt;/font&gt;" style="rhombus;whiteSpace=wrap;html=1;rounded=0;fontSize=10;fillColor=#ffe6cc;strokeColor=#d79b00;" parent="77e6c97f196da883-3" vertex="1">
          <mxGeometry x="276.5" y="1035" width="108" height="59" as="geometry" />
        </mxCell>
        <mxCell id="284" style="edgeStyle=orthogonalEdgeStyle;rounded=0;html=1;exitX=0;exitY=0.5;exitPerimeter=0;entryX=0.5;entryY=1;startArrow=none;startFill=0;endArrow=none;endFill=0;jettySize=auto;orthogonalLoop=1;strokeColor=#000000;strokeWidth=1;fontSize=16;fontColor=#000000;" parent="77e6c97f196da883-3" source="253" target="248" edge="1">
          <mxGeometry relative="1" as="geometry" />
        </mxCell>
        <mxCell id="285" style="edgeStyle=orthogonalEdgeStyle;rounded=0;html=1;exitX=1;exitY=1;exitPerimeter=0;entryX=0.5;entryY=0;startArrow=none;startFill=0;endArrow=none;endFill=0;jettySize=auto;orthogonalLoop=1;strokeColor=#000000;strokeWidth=1;fontSize=16;fontColor=#000000;" parent="77e6c97f196da883-3" source="253" target="169" edge="1">
          <mxGeometry relative="1" as="geometry" />
        </mxCell>
        <mxCell id="286" style="edgeStyle=orthogonalEdgeStyle;rounded=0;html=1;exitX=1;exitY=0;exitPerimeter=0;entryX=0.5;entryY=0;startArrow=none;startFill=0;endArrow=none;endFill=0;jettySize=auto;orthogonalLoop=1;strokeColor=#000000;strokeWidth=1;fontSize=16;fontColor=#000000;" parent="77e6c97f196da883-3" source="253" target="249" edge="1">
          <mxGeometry relative="1" as="geometry" />
        </mxCell>
        <mxCell id="253" value="" style="strokeWidth=1;html=1;shape=mxgraph.flowchart.annotation_2;align=left;rounded=0;labelBackgroundColor=none;fontSize=10;rotation=90;" parent="77e6c97f196da883-3" vertex="1">
          <mxGeometry x="233.5" y="928.5" width="45" height="148" as="geometry" />
        </mxCell>
        <mxCell id="287" style="edgeStyle=orthogonalEdgeStyle;rounded=0;html=1;exitX=0;exitY=0.5;exitPerimeter=0;entryX=0.5;entryY=1;startArrow=none;startFill=0;endArrow=none;endFill=0;jettySize=auto;orthogonalLoop=1;strokeColor=#000000;strokeWidth=1;fontSize=16;fontColor=#000000;" parent="77e6c97f196da883-3" source="254" target="249" edge="1">
          <mxGeometry relative="1" as="geometry" />
        </mxCell>
        <mxCell id="289" style="edgeStyle=orthogonalEdgeStyle;rounded=0;html=1;exitX=1;exitY=1;exitPerimeter=0;entryX=0.5;entryY=0;startArrow=none;startFill=0;endArrow=none;endFill=0;jettySize=auto;orthogonalLoop=1;strokeColor=#000000;strokeWidth=1;fontSize=16;fontColor=#000000;" parent="77e6c97f196da883-3" source="254" target="165" edge="1">
          <mxGeometry relative="1" as="geometry" />
        </mxCell>
        <mxCell id="330" style="edgeStyle=orthogonalEdgeStyle;rounded=0;html=1;exitX=1;exitY=0;exitPerimeter=0;entryX=1;entryY=0.5;startArrow=none;startFill=0;endArrow=classic;endFill=1;jettySize=auto;orthogonalLoop=1;strokeColor=#000000;strokeWidth=1;fontSize=16;fontColor=#000000;" parent="77e6c97f196da883-3" source="254" target="276" edge="1">
          <mxGeometry relative="1" as="geometry" />
        </mxCell>
        <mxCell id="254" value="" style="strokeWidth=1;html=1;shape=mxgraph.flowchart.annotation_2;align=left;rounded=0;labelBackgroundColor=none;fontSize=10;rotation=90;" parent="77e6c97f196da883-3" vertex="1">
          <mxGeometry x="310" y="1039" width="45" height="156" as="geometry" />
        </mxCell>
        <mxCell id="317" style="edgeStyle=orthogonalEdgeStyle;rounded=0;html=1;exitX=0.5;exitY=1;entryX=0.5;entryY=0;startArrow=none;startFill=0;endArrow=classic;endFill=1;jettySize=auto;orthogonalLoop=1;strokeColor=#000000;strokeWidth=1;fontSize=16;fontColor=#000000;" parent="77e6c97f196da883-3" source="165" target="209" edge="1">
          <mxGeometry relative="1" as="geometry" />
        </mxCell>
        <mxCell id="165" value="&lt;span&gt;Update billing status&lt;/span&gt;&lt;br&gt;&lt;span&gt;&#39;&lt;span&gt;verifying&#39;&lt;/span&gt;&lt;br&gt;&lt;/span&gt;" style="rounded=1;whiteSpace=wrap;html=1;shadow=0;labelBackgroundColor=none;strokeColor=#6c8ebf;strokeWidth=1;fillColor=#dae8fc;fontFamily=Verdana;fontSize=8;fontColor=#000000;align=center;" parent="77e6c97f196da883-3" vertex="1">
          <mxGeometry x="201.5" y="1145" width="108" height="56" as="geometry" />
        </mxCell>
        <mxCell id="263" style="edgeStyle=orthogonalEdgeStyle;rounded=0;html=1;exitX=0;exitY=0.5;entryX=1;entryY=0.5;startArrow=none;startFill=0;endArrow=classic;endFill=1;jettySize=auto;orthogonalLoop=1;strokeColor=#000000;strokeWidth=1;fontSize=16;fontColor=#000000;" parent="77e6c97f196da883-3" source="209" target="210" edge="1">
          <mxGeometry relative="1" as="geometry" />
        </mxCell>
        <mxCell id="271" style="edgeStyle=orthogonalEdgeStyle;rounded=0;html=1;exitX=0;exitY=0.5;exitPerimeter=0;entryX=0;entryY=0.5;entryPerimeter=0;startArrow=none;startFill=0;endArrow=classic;endFill=1;jettySize=auto;orthogonalLoop=1;strokeColor=#000000;strokeWidth=1;fontSize=16;fontColor=#000000;" parent="77e6c97f196da883-3" source="218" target="218" edge="1">
          <mxGeometry relative="1" as="geometry" />
        </mxCell>
        <mxCell id="278" style="edgeStyle=orthogonalEdgeStyle;rounded=0;html=1;entryX=0.5;entryY=0;startArrow=none;startFill=0;endArrow=classic;endFill=1;jettySize=auto;orthogonalLoop=1;strokeColor=#000000;strokeWidth=1;fontSize=16;fontColor=#000000;" parent="77e6c97f196da883-3" source="274" target="276" edge="1">
          <mxGeometry relative="1" as="geometry">
            <Array as="points">
              <mxPoint x="328" y="1592" />
              <mxPoint x="263" y="1592" />
            </Array>
          </mxGeometry>
        </mxCell>
        <mxCell id="274" value="&lt;span&gt;Update user points&lt;br&gt;&lt;/span&gt;" style="rounded=1;whiteSpace=wrap;html=1;shadow=0;labelBackgroundColor=none;strokeColor=#6c8ebf;strokeWidth=1;fillColor=#dae8fc;fontFamily=Verdana;fontSize=8;fontColor=#000000;align=center;" parent="77e6c97f196da883-3" vertex="1">
          <mxGeometry x="265" y="1497" width="125" height="72" as="geometry" />
        </mxCell>
        <mxCell id="276" value="&lt;span&gt;Add&amp;nbsp; Log&lt;br&gt;&lt;/span&gt;&lt;span&gt;(cloudwatch)&lt;br&gt;&lt;/span&gt;" style="rounded=1;whiteSpace=wrap;html=1;shadow=0;labelBackgroundColor=none;strokeColor=#6c8ebf;strokeWidth=1;fillColor=#dae8fc;fontFamily=Verdana;fontSize=8;fontColor=#000000;align=center;" parent="77e6c97f196da883-3" vertex="1">
          <mxGeometry x="198.5" y="1622" width="129" height="56" as="geometry" />
        </mxCell>
        <mxCell id="279" value="Update status&lt;br&gt;&amp;nbsp;&#39;start billing&#39;&lt;br&gt;" style="rounded=1;whiteSpace=wrap;html=1;shadow=0;labelBackgroundColor=none;strokeColor=#6c8ebf;strokeWidth=1;fillColor=#dae8fc;fontFamily=Verdana;fontSize=8;fontColor=#000000;align=center;" parent="77e6c97f196da883-3" vertex="1">
          <mxGeometry x="181" y="141.5" width="102" height="56" as="geometry" />
        </mxCell>
        <mxCell id="292" style="edgeStyle=orthogonalEdgeStyle;rounded=0;html=1;exitX=0.5;exitY=1;entryX=0;entryY=0.5;startArrow=none;startFill=0;endArrow=classic;endFill=1;jettySize=auto;orthogonalLoop=1;strokeColor=#000000;strokeWidth=1;fontSize=16;fontColor=#000000;" parent="77e6c97f196da883-3" source="169" target="165" edge="1">
          <mxGeometry relative="1" as="geometry" />
        </mxCell>
        <mxCell id="293" value="T&lt;br&gt;" style="text;html=1;strokeColor=none;fillColor=none;align=center;verticalAlign=middle;whiteSpace=wrap;rounded=0;fontSize=10;" parent="77e6c97f196da883-3" vertex="1">
          <mxGeometry x="262.5" y="978" width="40" height="20" as="geometry" />
        </mxCell>
        <mxCell id="294" value="T&lt;br&gt;" style="text;html=1;strokeColor=none;fillColor=none;align=center;verticalAlign=middle;whiteSpace=wrap;rounded=0;fontSize=10;" parent="77e6c97f196da883-3" vertex="1">
          <mxGeometry x="342.5" y="1097" width="40" height="20" as="geometry" />
        </mxCell>
        <mxCell id="295" value="F&lt;br&gt;" style="text;html=1;strokeColor=none;fillColor=none;align=center;verticalAlign=middle;whiteSpace=wrap;rounded=0;fontSize=10;" parent="77e6c97f196da883-3" vertex="1">
          <mxGeometry x="201" y="978" width="40" height="20" as="geometry" />
        </mxCell>
        <mxCell id="296" value="F&lt;br&gt;" style="text;html=1;strokeColor=none;fillColor=none;align=center;verticalAlign=middle;whiteSpace=wrap;rounded=0;fontSize=10;" parent="77e6c97f196da883-3" vertex="1">
          <mxGeometry x="272" y="1094" width="40" height="20" as="geometry" />
        </mxCell>
        <mxCell id="302" value="" style="rounded=1;whiteSpace=wrap;html=1;labelBackgroundColor=none;strokeWidth=1;fontSize=10;rotation=90;fillColor=#dae8fc;strokeColor=#6c8ebf;gradientColor=#7ea6e0;" parent="77e6c97f196da883-3" vertex="1">
          <mxGeometry x="182" y="317" width="88" height="162" as="geometry" />
        </mxCell>
        <mxCell id="303" value="Update status&lt;br&gt;&amp;nbsp;&#39;cancel billing&#39;&lt;br&gt;" style="rounded=1;whiteSpace=wrap;html=1;shadow=0;labelBackgroundColor=none;strokeColor=#6c8ebf;strokeWidth=1;fillColor=#dae8fc;fontFamily=Verdana;fontSize=8;fontColor=#000000;align=center;" parent="77e6c97f196da883-3" vertex="1">
          <mxGeometry x="177" y="372.5" width="102" height="56" as="geometry" />
        </mxCell>
        <mxCell id="323" value="Failed&lt;br&gt;" style="text;html=1;strokeColor=none;fillColor=none;align=center;verticalAlign=middle;whiteSpace=wrap;rounded=0;fontSize=10;" parent="77e6c97f196da883-3" vertex="1">
          <mxGeometry x="105" y="1622" width="40" height="20" as="geometry" />
        </mxCell>
        <mxCell id="326" value="Failed&lt;br&gt;" style="text;html=1;strokeColor=none;fillColor=none;align=center;verticalAlign=middle;whiteSpace=wrap;rounded=0;fontSize=10;" parent="77e6c97f196da883-3" vertex="1">
          <mxGeometry x="351.5" y="1658" width="40" height="20" as="geometry" />
        </mxCell>
        <mxCell id="327" value="Failed&lt;br&gt;" style="text;html=1;strokeColor=none;fillColor=none;align=center;verticalAlign=middle;whiteSpace=wrap;rounded=0;fontSize=10;" parent="77e6c97f196da883-3" vertex="1">
          <mxGeometry x="184.5" y="1569" width="40" height="20" as="geometry" />
        </mxCell>
        <mxCell id="328" value="success&lt;br&gt;" style="text;html=1;strokeColor=none;fillColor=none;align=center;verticalAlign=middle;whiteSpace=wrap;rounded=0;fontSize=10;" parent="77e6c97f196da883-3" vertex="1">
          <mxGeometry x="333.5" y="1582" width="40" height="20" as="geometry" />
        </mxCell>
        <mxCell id="348" value="" style="rounded=1;whiteSpace=wrap;html=1;labelBackgroundColor=none;strokeWidth=1;fontSize=10;rotation=90;fillColor=#dae8fc;strokeColor=#6c8ebf;gradientColor=#7ea6e0;" vertex="1" parent="77e6c97f196da883-3">
          <mxGeometry x="180" y="467" width="88" height="162" as="geometry" />
        </mxCell>
        <mxCell id="349" value="Update status&lt;br&gt;&amp;nbsp;&#39;failed billing&#39;&lt;br&gt;" style="rounded=1;whiteSpace=wrap;html=1;shadow=0;labelBackgroundColor=none;strokeColor=#6c8ebf;strokeWidth=1;fillColor=#dae8fc;fontFamily=Verdana;fontSize=8;fontColor=#000000;align=center;" vertex="1" parent="77e6c97f196da883-3">
          <mxGeometry x="177" y="523" width="102" height="56" as="geometry" />
        </mxCell>
        <mxCell id="363" value="F (失敗)" style="text;html=1;strokeColor=none;fillColor=none;align=center;verticalAlign=middle;whiteSpace=wrap;rounded=0;fontSize=10;" vertex="1" parent="77e6c97f196da883-3">
          <mxGeometry x="8" y="520" width="70" height="20" as="geometry" />
        </mxCell>
        <mxCell id="65" value="serial_id、receipt_id&lt;br&gt;google or apple&lt;br&gt;receipt data" style="text;html=1;strokeColor=none;fillColor=none;align=center;verticalAlign=middle;whiteSpace=wrap;rounded=0;fontSize=10;" parent="77e6c97f196da883-3" vertex="1">
          <mxGeometry x="55" y="660" width="140" height="30" as="geometry" />
        </mxCell>
        <mxCell id="226" style="edgeStyle=orthogonalEdgeStyle;rounded=0;html=1;exitX=0.5;exitY=1;entryX=0.5;entryY=1;startArrow=none;startFill=0;endArrow=classic;endFill=1;jettySize=auto;orthogonalLoop=1;strokeColor=#000000;strokeWidth=1;fontSize=16;fontColor=#000000;" parent="77e6c97f196da883-3" source="65" target="65" edge="1">
          <mxGeometry relative="1" as="geometry" />
        </mxCell>
        <mxCell id="53" value="&lt;span&gt;response (receipt id、&lt;/span&gt;receipt data...&lt;span&gt;)&lt;/span&gt;" style="text;html=1;strokeColor=none;fillColor=none;align=center;verticalAlign=middle;whiteSpace=wrap;rounded=0;fontSize=10;" parent="77e6c97f196da883-3" vertex="1">
          <mxGeometry x="145" y="469" width="220" height="20" as="geometry" />
        </mxCell>
        <mxCell id="361" style="edgeStyle=orthogonalEdgeStyle;rounded=0;html=1;exitX=0.5;exitY=1;entryX=0.5;entryY=0;endArrow=classic;endFill=1;jettySize=auto;orthogonalLoop=1;fontSize=9;" edge="1" parent="77e6c97f196da883-1" source="48" target="343">
          <mxGeometry relative="1" as="geometry">
            <Array as="points">
              <mxPoint x="842" y="488" />
              <mxPoint x="120" y="488" />
            </Array>
          </mxGeometry>
        </mxCell>
        <mxCell id="362" style="edgeStyle=orthogonalEdgeStyle;rounded=0;html=1;exitX=1;exitY=0.5;entryX=0.5;entryY=1;endArrow=classic;endFill=1;jettySize=auto;orthogonalLoop=1;fontSize=9;" edge="1" parent="77e6c97f196da883-1" source="343" target="348">
          <mxGeometry relative="1" as="geometry" />
        </mxCell>
        <mxCell id="332" style="edgeStyle=orthogonalEdgeStyle;rounded=0;html=1;exitX=0.5;exitY=1;startArrow=none;startFill=0;endArrow=classic;endFill=1;jettySize=auto;orthogonalLoop=1;strokeColor=#000000;strokeWidth=1;fontSize=16;fontColor=#000000;entryX=1;entryY=0.5;" parent="77e6c97f196da883-1" source="276" target="119" edge="1">
          <mxGeometry relative="1" as="geometry">
            <mxPoint x="222" y="1058" as="targetPoint" />
            <Array as="points">
              <mxPoint x="518" y="1768" />
              <mxPoint x="232" y="1768" />
              <mxPoint x="232" y="783" />
            </Array>
          </mxGeometry>
        </mxCell>
        <mxCell id="367" style="edgeStyle=orthogonalEdgeStyle;rounded=0;html=1;exitX=1;exitY=0.5;endArrow=classic;endFill=1;jettySize=auto;orthogonalLoop=1;fontSize=9;" edge="1" parent="77e6c97f196da883-1" source="132" target="217">
          <mxGeometry relative="1" as="geometry" />
        </mxCell>
        <mxCell id="3" style="edgeStyle=orthogonalEdgeStyle;rounded=1;html=1;exitX=1;exitY=0.5;entryX=0;entryY=0.5;endArrow=classic;endFill=1;jettySize=auto;orthogonalLoop=1;fontSize=17;" parent="1" source="2" target="77e6c97f196da883-8" edge="1">
          <mxGeometry relative="1" as="geometry" />
        </mxCell>
        <mxCell id="2" value="" style="ellipse;whiteSpace=wrap;html=1;aspect=fixed;rounded=0;fontSize=17;" parent="1" vertex="1">
          <mxGeometry x="163" y="347" width="30" height="30" as="geometry" />
        </mxCell>
      </root>
    </mxGraphModel>
  </diagram>
  <diagram name="購買商品（扣點數）" id="7ysxt9-xZuAn4swj338G">
    <mxGraphModel dx="699" dy="397" grid="1" gridSize="10" guides="1" tooltips="1" connect="1" arrows="1" fold="1" page="1" pageScale="1" pageWidth="827" pageHeight="1169" background="#ffffff" math="0" shadow="0">
      <root>
        <mxCell id="0" />
        <mxCell id="1" parent="0" />
        <mxCell id="2" value="購買商品" style="swimlane;html=1;childLayout=stackLayout;startSize=20;rounded=0;shadow=0;labelBackgroundColor=none;strokeColor=#36393d;strokeWidth=1;fillColor=#cce5ff;fontFamily=Verdana;fontSize=8;fontColor=#000000;align=center;dashed=1;" vertex="1" parent="1">
          <mxGeometry x="143.5" y="202.5" width="560" height="1150" as="geometry" />
        </mxCell>
        <mxCell id="3" value="Client 端" style="swimlane;html=1;startSize=20;labelBackgroundColor=#ffffff;dashed=1;" vertex="1" parent="2">
          <mxGeometry y="20" width="255" height="1130" as="geometry">
            <mxRectangle y="20" width="80" height="990" as="alternateBounds" />
          </mxGeometry>
        </mxCell>
        <mxCell id="4" value="Purchase Product (音頻包)" style="rounded=1;whiteSpace=wrap;html=1;shadow=0;labelBackgroundColor=none;strokeColor=#666666;strokeWidth=1;fillColor=#f5f5f5;fontFamily=Verdana;fontSize=8;fontColor=#000000;align=center;gradientColor=#b3b3b3;" vertex="1" parent="3">
          <mxGeometry x="70" y="45" width="100" height="60" as="geometry" />
        </mxCell>
        <mxCell id="5" value="show error message" style="rounded=0;whiteSpace=wrap;html=1;fontSize=10;fillColor=#d5e8d4;strokeColor=#82b366;" vertex="1" parent="3">
          <mxGeometry x="77.5" y="208" width="85" height="60" as="geometry" />
        </mxCell>
        <mxCell id="6" value="Purchase Success" style="rounded=0;whiteSpace=wrap;html=1;fontSize=10;fillColor=#f5f5f5;strokeColor=#666666;gradientColor=#b3b3b3;" vertex="1" parent="3">
          <mxGeometry x="60" y="928.5" width="120" height="60" as="geometry" />
        </mxCell>
        <mxCell id="7" style="edgeStyle=orthogonalEdgeStyle;rounded=1;html=1;exitX=0.5;exitY=1;entryX=0.5;entryY=0;endArrow=classic;endFill=1;jettySize=auto;orthogonalLoop=1;fontSize=10;" edge="1" parent="3" source="9" target="6">
          <mxGeometry relative="1" as="geometry" />
        </mxCell>
        <mxCell id="8" style="edgeStyle=orthogonalEdgeStyle;rounded=1;html=1;exitX=0.5;exitY=0;entryX=0.5;entryY=1;endArrow=classic;endFill=1;jettySize=auto;orthogonalLoop=1;fontSize=10;" edge="1" parent="3" source="9" target="5">
          <mxGeometry relative="1" as="geometry" />
        </mxCell>
        <mxCell id="9" value="&lt;font style=&quot;font-size: 10px&quot;&gt;Product purchase status&lt;br&gt;&lt;/font&gt;" style="rhombus;whiteSpace=wrap;html=1;rounded=0;fontSize=10;fillColor=#ffe6cc;strokeColor=#d79b00;" vertex="1" parent="3">
          <mxGeometry x="63" y="564.5" width="114" height="88" as="geometry" />
        </mxCell>
        <mxCell id="79" value="failed&lt;br&gt;" style="text;html=1;strokeColor=none;fillColor=none;align=center;verticalAlign=middle;whiteSpace=wrap;rounded=0;fontSize=10;" vertex="1" parent="3">
          <mxGeometry x="188.5" y="311" width="40" height="20" as="geometry" />
        </mxCell>
        <mxCell id="13" value="Server 端" style="swimlane;html=1;startSize=20;dashed=1;" vertex="1" parent="2">
          <mxGeometry x="255" y="20" width="305" height="1130" as="geometry" />
        </mxCell>
        <mxCell id="59" style="edgeStyle=orthogonalEdgeStyle;rounded=0;html=1;exitX=1;exitY=0.5;entryX=0.5;entryY=0;startArrow=none;startFill=0;endArrow=classic;endFill=1;jettySize=auto;orthogonalLoop=1;strokeColor=#000000;strokeWidth=1;fontSize=16;fontColor=#000000;" edge="1" parent="13" source="15" target="27">
          <mxGeometry relative="1" as="geometry" />
        </mxCell>
        <mxCell id="15" value="" style="rounded=1;whiteSpace=wrap;html=1;labelBackgroundColor=none;strokeWidth=1;fontSize=10;rotation=90;fillColor=#dae8fc;strokeColor=#6c8ebf;gradientColor=#7ea6e0;" vertex="1" parent="13">
          <mxGeometry x="123" y="331" width="177" height="132" as="geometry" />
        </mxCell>
        <mxCell id="16" value="uid&lt;br&gt;product_id&lt;br&gt;&lt;br&gt;" style="text;html=1;strokeColor=none;fillColor=none;align=center;verticalAlign=middle;whiteSpace=wrap;rounded=0;dashed=1;dashPattern=1 2;fontSize=12;" vertex="1" parent="13">
          <mxGeometry x="1" y="38" width="80" height="30" as="geometry" />
        </mxCell>
        <mxCell id="17" style="edgeStyle=orthogonalEdgeStyle;rounded=1;html=1;exitX=0.5;exitY=1;entryX=0.5;entryY=0;endArrow=classic;endFill=1;jettySize=auto;orthogonalLoop=1;fontSize=10;" edge="1" parent="13" source="18" target="19">
          <mxGeometry relative="1" as="geometry" />
        </mxCell>
        <mxCell id="18" value="Record uid,&amp;nbsp;&lt;br&gt;Create serial_id&lt;br&gt;" style="rounded=1;whiteSpace=wrap;html=1;shadow=0;labelBackgroundColor=none;strokeColor=#6c8ebf;strokeWidth=1;fillColor=#dae8fc;fontFamily=Verdana;fontSize=8;fontColor=#000000;align=center;" vertex="1" parent="13">
          <mxGeometry x="162" y="321" width="100" height="60" as="geometry" />
        </mxCell>
        <mxCell id="19" value="Update User purchase status&lt;br&gt;&#39;Start Product Purchase&#39;&lt;br&gt;" style="rounded=1;whiteSpace=wrap;html=1;shadow=0;labelBackgroundColor=none;strokeColor=#6c8ebf;strokeWidth=1;fillColor=#dae8fc;fontFamily=Verdana;fontSize=8;fontColor=#000000;align=center;" vertex="1" parent="13">
          <mxGeometry x="155" y="406" width="115" height="70" as="geometry" />
        </mxCell>
        <mxCell id="61" style="edgeStyle=orthogonalEdgeStyle;rounded=0;html=1;exitX=0.5;exitY=1;entryX=0.5;entryY=0;startArrow=none;startFill=0;endArrow=classic;endFill=1;jettySize=auto;orthogonalLoop=1;strokeColor=#000000;strokeWidth=1;fontSize=16;fontColor=#000000;" edge="1" parent="13" source="27" target="32">
          <mxGeometry relative="1" as="geometry" />
        </mxCell>
        <mxCell id="27" value="Update User product right &amp;amp; Update User&#39;s Point" style="rounded=1;whiteSpace=wrap;html=1;shadow=0;labelBackgroundColor=none;strokeColor=#6c8ebf;strokeWidth=1;fillColor=#dae8fc;fontFamily=Verdana;fontSize=8;fontColor=#000000;align=center;" vertex="1" parent="13">
          <mxGeometry x="155" y="518" width="109" height="72" as="geometry" />
        </mxCell>
        <mxCell id="60" style="edgeStyle=orthogonalEdgeStyle;rounded=0;html=1;exitX=0.5;exitY=1;startArrow=none;startFill=0;endArrow=classic;endFill=1;jettySize=auto;orthogonalLoop=1;strokeColor=#000000;strokeWidth=1;fontSize=16;fontColor=#000000;" edge="1" parent="13" source="32" target="58">
          <mxGeometry relative="1" as="geometry" />
        </mxCell>
        <mxCell id="72" style="edgeStyle=orthogonalEdgeStyle;rounded=0;html=1;exitX=0;exitY=0.5;entryX=1;entryY=0.5;startArrow=none;startFill=0;endArrow=classic;endFill=1;jettySize=auto;orthogonalLoop=1;strokeColor=#000000;strokeWidth=1;fontSize=16;fontColor=#000000;" edge="1" parent="13" source="32" target="71">
          <mxGeometry relative="1" as="geometry" />
        </mxCell>
        <mxCell id="32" value="success?" style="rhombus;whiteSpace=wrap;html=1;rounded=0;fontSize=10;fillColor=#ffe6cc;strokeColor=#d79b00;" vertex="1" parent="13">
          <mxGeometry x="169" y="617.5" width="80" height="50" as="geometry" />
        </mxCell>
        <mxCell id="51" style="edgeStyle=orthogonalEdgeStyle;rounded=0;html=1;exitX=0.5;exitY=1;entryX=0.5;entryY=0;startArrow=none;startFill=0;endArrow=classic;endFill=1;jettySize=auto;orthogonalLoop=1;strokeColor=#000000;strokeWidth=1;fontSize=16;fontColor=#000000;" edge="1" parent="13" source="43" target="48">
          <mxGeometry relative="1" as="geometry" />
        </mxCell>
        <mxCell id="54" style="edgeStyle=orthogonalEdgeStyle;rounded=0;html=1;entryX=1;entryY=0.5;startArrow=none;startFill=0;endArrow=classic;endFill=1;jettySize=auto;orthogonalLoop=1;strokeColor=#000000;strokeWidth=1;fontSize=16;fontColor=#000000;" edge="1" parent="13" source="43" target="50">
          <mxGeometry relative="1" as="geometry" />
        </mxCell>
        <mxCell id="43" value="&lt;font style=&quot;font-size: 10px&quot;&gt;product status OK&lt;/font&gt;" style="rhombus;whiteSpace=wrap;html=1;rounded=0;fontSize=10;fillColor=#ffe6cc;strokeColor=#d79b00;" vertex="1" parent="13">
          <mxGeometry x="170.5" y="142.5" width="80" height="50" as="geometry" />
        </mxCell>
        <mxCell id="52" style="edgeStyle=orthogonalEdgeStyle;rounded=0;html=1;exitX=0.5;exitY=1;entryX=0;entryY=0.5;startArrow=none;startFill=0;endArrow=classic;endFill=1;jettySize=auto;orthogonalLoop=1;strokeColor=#000000;strokeWidth=1;fontSize=16;fontColor=#000000;" edge="1" parent="13" source="48" target="15">
          <mxGeometry relative="1" as="geometry" />
        </mxCell>
        <mxCell id="73" style="edgeStyle=orthogonalEdgeStyle;rounded=0;html=1;exitX=0;exitY=0.5;entryX=0.5;entryY=1;startArrow=none;startFill=0;endArrow=classic;endFill=1;jettySize=auto;orthogonalLoop=1;strokeColor=#000000;strokeWidth=1;fontSize=16;fontColor=#000000;" edge="1" parent="13" source="48" target="50">
          <mxGeometry relative="1" as="geometry" />
        </mxCell>
        <mxCell id="48" value="&lt;span&gt;點數檢查&amp;nbsp;&lt;/span&gt;&lt;br&gt;&lt;span&gt;OK&lt;/span&gt;" style="rhombus;whiteSpace=wrap;html=1;rounded=0;fontSize=10;fillColor=#ffe6cc;strokeColor=#d79b00;" vertex="1" parent="13">
          <mxGeometry x="171.5" y="218" width="80" height="50" as="geometry" />
        </mxCell>
        <mxCell id="49" style="edgeStyle=orthogonalEdgeStyle;rounded=0;html=1;exitX=0.5;exitY=0;entryX=0.5;entryY=0;startArrow=none;startFill=0;endArrow=none;endFill=0;jettySize=auto;orthogonalLoop=1;strokeColor=#000000;strokeWidth=1;fontSize=16;fontColor=#000000;" edge="1" parent="13">
          <mxGeometry relative="1" as="geometry">
            <mxPoint x="285" y="249.5" as="sourcePoint" />
            <mxPoint x="285" y="249.5" as="targetPoint" />
          </mxGeometry>
        </mxCell>
        <mxCell id="50" value="Add Log&lt;br&gt;(cloudwatch)&lt;br&gt;" style="rounded=1;whiteSpace=wrap;html=1;shadow=0;labelBackgroundColor=none;strokeColor=#6c8ebf;strokeWidth=1;fillColor=#dae8fc;fontFamily=Verdana;fontSize=8;fontColor=#000000;align=center;" vertex="1" parent="13">
          <mxGeometry x="30" y="149" width="80" height="38" as="geometry" />
        </mxCell>
        <mxCell id="81" style="edgeStyle=orthogonalEdgeStyle;rounded=0;html=1;exitX=0.5;exitY=1;entryX=0.5;entryY=0;startArrow=none;startFill=0;endArrow=classic;endFill=1;jettySize=auto;orthogonalLoop=1;strokeColor=#000000;strokeWidth=1;fontSize=16;fontColor=#000000;" edge="1" parent="13" source="58" target="80">
          <mxGeometry relative="1" as="geometry" />
        </mxCell>
        <mxCell id="58" value="Update User purchase status&lt;br&gt;&#39;Product Purchase Completed&#39;&lt;br&gt;" style="rounded=1;whiteSpace=wrap;html=1;shadow=0;labelBackgroundColor=none;strokeColor=#6c8ebf;strokeWidth=1;fillColor=#dae8fc;fontFamily=Verdana;fontSize=8;fontColor=#000000;align=center;" vertex="1" parent="13">
          <mxGeometry x="152" y="807.5" width="115" height="70" as="geometry" />
        </mxCell>
        <mxCell id="65" value="F&lt;br&gt;" style="text;html=1;strokeColor=none;fillColor=none;align=center;verticalAlign=middle;whiteSpace=wrap;rounded=0;fontSize=10;" vertex="1" parent="13">
          <mxGeometry x="123" y="147.5" width="40" height="20" as="geometry" />
        </mxCell>
        <mxCell id="66" value="F&lt;br&gt;" style="text;html=1;strokeColor=none;fillColor=none;align=center;verticalAlign=middle;whiteSpace=wrap;rounded=0;fontSize=10;" vertex="1" parent="13">
          <mxGeometry x="123" y="223" width="40" height="20" as="geometry" />
        </mxCell>
        <mxCell id="67" value="Ｙ&lt;br&gt;" style="text;html=1;strokeColor=none;fillColor=none;align=center;verticalAlign=middle;whiteSpace=wrap;rounded=0;fontSize=10;" vertex="1" parent="13">
          <mxGeometry x="214" y="192.5" width="40" height="20" as="geometry" />
        </mxCell>
        <mxCell id="68" value="Ｙ&lt;br&gt;" style="text;html=1;strokeColor=none;fillColor=none;align=center;verticalAlign=middle;whiteSpace=wrap;rounded=0;fontSize=10;" vertex="1" parent="13">
          <mxGeometry x="216" y="277.5" width="40" height="20" as="geometry" />
        </mxCell>
        <mxCell id="70" value="Y&lt;br&gt;" style="text;html=1;strokeColor=none;fillColor=none;align=center;verticalAlign=middle;whiteSpace=wrap;rounded=0;fontSize=10;" vertex="1" parent="13">
          <mxGeometry x="212.5" y="727.5" width="40" height="20" as="geometry" />
        </mxCell>
        <mxCell id="87" style="edgeStyle=orthogonalEdgeStyle;rounded=0;html=1;exitX=0.5;exitY=0;entryX=0.5;entryY=1;startArrow=none;startFill=0;endArrow=none;endFill=0;jettySize=auto;orthogonalLoop=1;strokeColor=#000000;strokeWidth=1;fontSize=16;fontColor=#000000;" edge="1" parent="13" source="71" target="50">
          <mxGeometry relative="1" as="geometry">
            <Array as="points">
              <mxPoint x="70" y="608" />
            </Array>
          </mxGeometry>
        </mxCell>
        <mxCell id="71" value="Update User purchase status&lt;br&gt;&#39;Product Purchase Failed&#39;&lt;br&gt;" style="rounded=1;whiteSpace=wrap;html=1;shadow=0;labelBackgroundColor=none;strokeColor=#6c8ebf;strokeWidth=1;fillColor=#dae8fc;fontFamily=Verdana;fontSize=8;fontColor=#000000;align=center;" vertex="1" parent="13">
          <mxGeometry x="18" y="607.5" width="115" height="70" as="geometry" />
        </mxCell>
        <mxCell id="69" value="F&lt;br&gt;" style="text;html=1;strokeColor=none;fillColor=none;align=center;verticalAlign=middle;whiteSpace=wrap;rounded=0;fontSize=10;" vertex="1" parent="13">
          <mxGeometry x="140" y="618.5" width="40" height="20" as="geometry" />
        </mxCell>
        <mxCell id="78" value="success&lt;br&gt;" style="text;html=1;strokeColor=none;fillColor=none;align=center;verticalAlign=middle;whiteSpace=wrap;rounded=0;fontSize=10;" vertex="1" parent="13">
          <mxGeometry x="93" y="904.5" width="40" height="20" as="geometry" />
        </mxCell>
        <mxCell id="80" value="Add Log&lt;br&gt;(cloudwatch)&lt;br&gt;" style="rounded=1;whiteSpace=wrap;html=1;shadow=0;labelBackgroundColor=none;strokeColor=#6c8ebf;strokeWidth=1;fillColor=#dae8fc;fontFamily=Verdana;fontSize=8;fontColor=#000000;align=center;" vertex="1" parent="13">
          <mxGeometry x="175" y="910" width="85" height="38" as="geometry" />
        </mxCell>
        <mxCell id="75" style="edgeStyle=orthogonalEdgeStyle;rounded=0;html=1;exitX=0;exitY=0.5;entryX=1;entryY=0.5;startArrow=none;startFill=0;endArrow=classic;endFill=1;jettySize=auto;orthogonalLoop=1;strokeColor=#000000;strokeWidth=1;fontSize=16;fontColor=#000000;" edge="1" parent="2" source="50" target="9">
          <mxGeometry relative="1" as="geometry">
            <Array as="points">
              <mxPoint x="237" y="188" />
              <mxPoint x="237" y="629" />
            </Array>
          </mxGeometry>
        </mxCell>
        <mxCell id="85" style="edgeStyle=orthogonalEdgeStyle;rounded=0;html=1;exitX=0;exitY=0.5;entryX=1;entryY=0.5;startArrow=none;startFill=0;endArrow=classic;endFill=1;jettySize=auto;orthogonalLoop=1;strokeColor=#000000;strokeWidth=1;fontSize=16;fontColor=#000000;" edge="1" parent="2" source="80" target="9">
          <mxGeometry relative="1" as="geometry">
            <Array as="points">
              <mxPoint x="430" y="950" />
              <mxPoint x="238" y="950" />
              <mxPoint x="238" y="629" />
            </Array>
          </mxGeometry>
        </mxCell>
        <mxCell id="86" style="edgeStyle=orthogonalEdgeStyle;rounded=0;html=1;exitX=1;exitY=0.5;entryX=0.5;entryY=0;startArrow=none;startFill=0;endArrow=classic;endFill=1;jettySize=auto;orthogonalLoop=1;strokeColor=#000000;strokeWidth=1;fontSize=16;fontColor=#000000;" edge="1" parent="2" source="4" target="43">
          <mxGeometry relative="1" as="geometry" />
        </mxCell>
        <mxCell id="40" style="edgeStyle=orthogonalEdgeStyle;rounded=1;html=1;exitX=1;exitY=0.5;entryX=0;entryY=0.5;endArrow=classic;endFill=1;jettySize=auto;orthogonalLoop=1;fontSize=17;" edge="1" source="41" target="4" parent="1">
          <mxGeometry relative="1" as="geometry" />
        </mxCell>
        <mxCell id="41" value="" style="ellipse;whiteSpace=wrap;html=1;aspect=fixed;rounded=0;fontSize=17;" vertex="1" parent="1">
          <mxGeometry x="78.5" y="282.5" width="30" height="30" as="geometry" />
        </mxCell>
      </root>
    </mxGraphModel>
  </diagram>
</mxfile>
